# xmcd CD database file
#
# Track frame offsets:
#	150
#	4250
#	25040
#	43297
#	58537
#	84360
#	104262
#	124420
#	143295
#	160132
#	177195
#
# Disc length: 2739 seconds
#
# Revision: 0
# Processed by: cddbd v1.5PL3 Copyright (c) Steve Scherf et al.
# Submitted via: CDex 1.51
#
DISCID=840ab10b
DTITLE=Ｂ?Ｒ - Round?Birth
DYEAR=1999
DGENRE=Rock
TTITLE0=It's time to Birth
TTITLE1=BEAT IT！
TTITLE2=MOTORIKU♂
TTITLE3=翼
TTITLE4=Platinum
TTITLE5=Lovin'you
TTITLE6=DISTANCE 〜遠く離れて近づく愛〜
TTITLE7=HELLO
TTITLE8=LOVERS' GAME
TTITLE9=Good night
TTITLE10=E.G！E.S！
EXTD=YEAR: 1999
EXTT0=
EXTT1=
EXTT2=
EXTT3=
EXTT4=
EXTT5=
EXTT6=
EXTT7=
EXTT8=
EXTT9=
EXTT10=
PLAYORDER=
